<svg xmlns="http://www.w3.org/2000/svg" width="256" height="256" viewBox="0 0 64 64" role="img" aria-label="Oylanayiq">
  <defs>
    <linearGradient id="g" x1="0" y1="0" x2="1" y2="1">
      <stop offset="0" stop-color="#2563EB"/>
      <stop offset="1" stop-color="#8B5CF6"/>
    </linearGradient>
    <radialGradient id="h" cx="30%" cy="20%" r="75%">
      <stop offset="0" stop-color="rgba(255,255,255,0.35)"/>
      <stop offset="1" stop-color="rgba(255,255,255,0)"/>
    </radialGradient>
    <filter id="s" x="-30%" y="-30%" width="160%" height="160%">
      <feDropShadow dx="0" dy="6" stdDeviation="4" flood-color="#0F172A" flood-opacity="0.22"/>
    </filter>
  </defs>
  <rect x="8" y="8" width="48" height="48" rx="16" fill="url(#g)" filter="url(#s)"/>
  <rect x="8" y="8" width="48" height="48" rx="16" fill="url(#h)"/>
  <g transform="translate(12 14)" fill="none" stroke="rgba(255,255,255,0.96)" stroke-width="4" stroke-linecap="round" stroke-linejoin="round">
    <path d="M4 6a4 4 0 0 1 4 -4h32a4 4 0 0 1 4 4v16a4 4 0 0 1 -4 4h-32a4 4 0 0 1 -4 -4z"/>
    <path d="M12 16h8m-4 -4v8"/>
    <path d="M30 14v.01"/>
    <path d="M36 18v.01"/>
  </g>
</svg>
